<?xml version="1.0" encoding="UTF-8" standalone="no"?>
<!-- Created with Inkscape (http://www.inkscape.org/) -->

<svg
   width="210mm"
   height="297mm"
   viewBox="0 0 210 297"
   version="1.1"
   id="svg1"
   xml:space="preserve"
   inkscape:version="1.4 (e7c3feb, 2024-10-09)"
   sodipodi:docname="Obijuan-academy.svg"
   xmlns:inkscape="http://www.inkscape.org/namespaces/inkscape"
   xmlns:sodipodi="http://sodipodi.sourceforge.net/DTD/sodipodi-0.dtd"
   xmlns="http://www.w3.org/2000/svg"
   xmlns:svg="http://www.w3.org/2000/svg"><sodipodi:namedview
     id="namedview1"
     pagecolor="#ffffff"
     bordercolor="#000000"
     borderopacity="0.25"
     inkscape:showpageshadow="2"
     inkscape:pageopacity="0.0"
     inkscape:pagecheckerboard="0"
     inkscape:deskcolor="#d1d1d1"
     inkscape:document-units="mm"
     showguides="true"
     inkscape:zoom="0.47937534"
     inkscape:cx="410.95146"
     inkscape:cy="633.11558"
     inkscape:window-width="1866"
     inkscape:window-height="1011"
     inkscape:window-x="0"
     inkscape:window-y="0"
     inkscape:window-maximized="1"
     inkscape:current-layer="layer3" /><defs
     id="defs1" /><g
     inkscape:groupmode="layer"
     id="layer2"
     inkscape:label="Layer 2"
     style="display:inline" /><g
     inkscape:groupmode="layer"
     id="layer3"
     inkscape:label="Layer 3"
     style="display:inline"><g
       id="g15"><path
         id="circle1"
         style="display:inline;fill:#ffff00;fill-opacity:1;stroke:#000000;stroke-width:1.05833;stroke-linejoin:round"
         d="m 159.41873,174.05243 c 3.78632,-6.09636 6.42664,-13.70926 8.0217,-20.70623 l 22.20743,-3.06493 v -22.49114 l -22.19555,-3.06338 c -1.58439,-7.01081 -4.32469,-13.709 -8.10855,-19.81998 L 172.80651,87.132666 156.90308,71.229244 139.26282,84.590702 c -6.14446,-3.979555 -12.9191,-6.88864 -20.03599,-8.603609 L 116.24562,54.388411 H 93.754484 l -2.968811,21.509282 c -7.236784,1.61569 -14.142394,4.462045 -20.415808,8.41499 L 53.097017,71.229244 37.193079,87.132666 50.122522,104.20243 c -4.042794,6.33745 -6.9515,13.33031 -8.595858,20.6654 l -21.174418,2.9223 v 22.49114 l 21.082951,2.9099 c 1.607998,7.40001 4.501255,14.4607 8.548314,20.86126 L 105,161.96454 Z"
         sodipodi:nodetypes="cccccccccccccccccccccc" /><circle
         style="display:inline;fill:#ffffff;stroke:#000000;stroke-width:1.05833;stroke-linejoin:round"
         id="path1-2"
         cx="105"
         cy="139.03583"
         r="22.928711" /><path
         id="path13"
         style="display:inline;fill:#ff0000;fill-opacity:1;stroke:#000000;stroke-width:1.05833;stroke-linejoin:round"
         d="m 104.99979,99.12935 a 39.906242,39.906242 0 0 0 -36.24378,23.22701 h -0.0093 l -0.04651,0.1018 -31.50712,68.48057 15.903938,15.90394 h 20.327959 l 14.597558,-31.72519 a 39.906242,39.906242 0 0 0 16.977255,3.82457 39.906242,39.906242 0 0 0 16.97778,-3.82457 l 14.59756,31.72519 h 20.32795 l 15.90394,-15.90394 -31.55363,-68.58237 h -0.009 a 39.906242,39.906242 0 0 0 -36.2443,-23.22701 z" /><circle
         style="display:inline;fill:#ffffff;stroke:#000000;stroke-width:1.05833;stroke-linejoin:round"
         id="path1"
         cx="105"
         cy="139.03583"
         r="22.928711" /></g></g></svg>
