<?xml version="1.0" encoding="UTF-8" standalone="no"?>
<!-- Created with Inkscape (http://www.inkscape.org/) -->

<svg
   xmlns:dc="http://purl.org/dc/elements/1.1/"
   xmlns:cc="http://creativecommons.org/ns#"
   xmlns:rdf="http://www.w3.org/1999/02/22-rdf-syntax-ns#"
   xmlns:svg="http://www.w3.org/2000/svg"
   xmlns="http://www.w3.org/2000/svg"
   xmlns:sodipodi="http://sodipodi.sourceforge.net/DTD/sodipodi-0.dtd"
   xmlns:inkscape="http://www.inkscape.org/namespaces/inkscape"
   width="210mm"
   height="297mm"
   viewBox="0 0 744.09448819 1052.3622047"
   id="svg4305"
   version="1.1"
   inkscape:version="0.91 r13725"
   sodipodi:docname="wth-center-explanation.svg">
  <defs
     id="defs4307">
    <marker
       inkscape:stockid="Arrow1Mend"
       orient="auto"
       refY="0.0"
       refX="0.0"
       id="Arrow1Mend"
       style="overflow:visible;"
       inkscape:isstock="true">
      <path
         id="path4991"
         d="M 0.0,0.0 L 5.0,-5.0 L -12.5,0.0 L 5.0,5.0 L 0.0,0.0 z "
         style="fill-rule:evenodd;stroke:#000000;stroke-width:1pt;stroke-opacity:1;fill:#000000;fill-opacity:1"
         transform="scale(0.4) rotate(180) translate(10,0)" />
    </marker>
  </defs>
  <sodipodi:namedview
     id="base"
     pagecolor="#ffffff"
     bordercolor="#666666"
     borderopacity="1.0"
     inkscape:pageopacity="0.0"
     inkscape:pageshadow="2"
     inkscape:zoom="1.979899"
     inkscape:cx="337.4419"
     inkscape:cy="795.60452"
     inkscape:document-units="px"
     inkscape:current-layer="layer2"
     showgrid="false"
     inkscape:window-width="1215"
     inkscape:window-height="1000"
     inkscape:window-x="65"
     inkscape:window-y="24"
     inkscape:window-maximized="1" />
  <metadata
     id="metadata4310">
    <rdf:RDF>
      <cc:Work
         rdf:about="">
        <dc:format>image/svg+xml</dc:format>
        <dc:type
           rdf:resource="http://purl.org/dc/dcmitype/StillImage" />
        <dc:title />
      </cc:Work>
    </rdf:RDF>
  </metadata>
  <g
     inkscape:groupmode="layer"
     id="layer2"
     inkscape:label="back"
     style="display:inline">
    <rect
       style="opacity:1;fill:#ffffff;fill-opacity:1;stroke:none;stroke-width:2;stroke-linecap:round;stroke-linejoin:round;stroke-miterlimit:4;stroke-dasharray:none;stroke-dashoffset:0;stroke-opacity:1"
       id="rect4939"
       width="230.71428"
       height="128.57143"
       x="238.57143"
       y="183.79079"
       inkscape:export-xdpi="90"
       inkscape:export-ydpi="90" />
  </g>
  <g
     inkscape:label="Layer 1"
     inkscape:groupmode="layer"
     id="layer1"
     style="display:inline">
    <path
       inkscape:connector-curvature="0"
       d="m 321.65823,259.67213 c 0.0215,0.19607 -0.0458,0.67859 0.0458,0.78937 0.0948,0.15029 0.44878,0.11829 0.60212,0.0652 0.41895,-0.15724 0.83583,-0.70996 1.02935,-1.12431 0.1362,-0.21037 0.2278,-0.45669 0.19795,-0.73222 l -0.29309,-0.88658 c -0.0733,-0.31092 -0.17165,-0.85748 -0.50374,-0.98657 0.031,-0.0823 0.13621,-0.21088 0.1238,-0.32878 -0.0768,-0.35031 -0.663,-0.2583 -0.87247,0 -0.10547,0.12864 -0.0756,0.40344 -0.0984,0.56408 -0.006,0.31849 -0.0951,0.96147 -0.22219,1.25074 -0.12703,0.2887 -0.48306,0.67796 -0.48778,0.99628 0.0251,0.23547 0.27831,0.37163 0.47863,0.3939 l 0,0 z m -19.50786,-2.4596 0.10414,0.22868 c 0.005,0.0396 0.0515,0.11434 0.0916,0.11095 0.26561,0.25429 0.63773,-0.33505 0.19352,-0.41395 -0.04,0.006 -0.12247,-0.0294 -0.15792,0.0136 -0.0778,0.007 -0.15688,0.0141 -0.23134,0.0606 l 0,0 z m 0.29427,-0.58188 c -0.17978,0.17437 -0.24507,0.29956 0.047,0.43204 l -0.047,-0.43204 0,0 z m -4.73755,-3.46504 c -0.28851,0.26344 -0.26664,0.10337 -0.41437,0.19607 -0.10991,0.0885 -0.0183,0.1994 -0.11906,0.36744 -0.031,0.0823 -0.14536,0.13214 -0.13621,0.21093 -0.0264,0.12124 0.0996,0.18929 0.22203,0.21789 0.16147,0.0249 0.63315,-0.017 0.78073,-0.10914 0.14551,-0.13221 0.0882,-0.28594 0.15467,-0.41113 0.0355,-0.043 0.10533,-0.12853 0.14078,-0.17143 0.0171,-0.20003 -0.40535,-0.44018 -0.62857,-0.30063 l 0,0 z m 11.37558,-1.21757 0.0423,0.39271 -0.0458,0.32188 c 0.42811,-0.0783 0.69165,-0.22071 1.0716,-0.374 0.11345,-0.0497 0.34006,-0.14972 0.4281,-0.0782 0.12616,0.0686 0.0597,0.19313 0.0287,0.27542 -0.0617,0.16402 -0.30667,0.4642 -0.41215,0.59284 -0.31938,0.34574 -0.79092,0.38807 -1.18948,0.74138 -0.2142,0.21772 -0.27122,0.42114 -0.48661,0.63902 -0.2139,0.21716 -0.36754,0.27096 -0.47745,0.3601 -0.10518,0.12858 -0.0171,0.20002 -0.24019,0.33895 l 0.12704,-0.28871 c -0.12143,-0.0294 -0.2795,-0.0147 -0.37109,-0.12626 -0.0514,-0.11372 -0.0641,-0.23213 -0.0378,-0.35326 0.0541,-0.24292 0.10311,-0.88256 0.24404,-1.0541 0.0355,-0.043 0.34125,-0.14973 0.4544,-0.19947 l -0.0526,0.24299 c 0.11788,-0.0102 0.31376,-0.0283 0.38792,-0.0743 0.19264,-0.0571 0.38586,-0.4716 0.48661,-0.63902 l -0.53329,0.20636 c 0.0928,-0.24638 0.35602,-0.74596 0.57583,-0.92434 l 0,0 z m -10.54551,1.18258 c -0.0801,0.36484 0.14315,0.22529 0.27817,0.37219 0.087,0.0714 0.0997,0.18928 0.11227,0.30758 l -0.31022,0.0674 -0.13635,0.21031 -0.17521,0.21439 0.5324,0.15085 c -0.26664,0.10298 -0.4281,0.0777 -0.59873,0.3316 l 0.66743,-0.06 c 0.43623,0 0.76374,0.0903 1.17471,-0.14526 l -0.087,-0.0714 0.11906,-0.368 -0.29648,-0.1716 -0.10429,-0.22863 -0.49917,-0.59052 -0.16589,-0.0646 c 0.14078,-0.17143 0.4247,-0.475 0.0193,-0.55735 l -0.20031,-0.0215 0.1752,-0.21433 c -0.24049,-0.0175 -0.44081,-0.0396 -0.62059,0.13542 -0.21066,0.25666 -0.21642,0.57459 0.11567,0.70363 l 0,0 z m -0.23237,-5.09866 -0.009,0.27831 -0.0916,-0.11072 0.0114,0.47494 c 0.0699,0.27203 0.37552,0.16521 0.44539,0.0794 0.0745,-0.0463 0.0962,-0.20743 0.0882,-0.28577 -0.008,-0.0783 -0.0561,-0.15368 -0.0996,-0.18923 -0.0836,-0.0328 -0.12261,-0.0288 -0.2015,-0.0226 l -0.0253,-0.23541 -0.11789,0.0107 0,0 z m -32.38211,2.50426 c -0.0155,0.59668 0.14181,0.58238 0.27521,1.0866 0.0693,0.27153 -0.0401,0.36066 0.17639,0.89687 0.10414,0.22919 0.16826,0.46126 0.41673,0.55786 -0.0715,-0.66824 -0.15348,-1.0575 -0.37788,-1.67244 -0.16028,-0.38253 -0.28275,-0.41102 -0.41215,-0.87641 l -0.0783,0.007 0,0 z m 54.28607,-6.53061 c -0.18761,0.0961 -0.25409,0.22117 -0.23252,0.41718 -0.0183,0.20065 0.1557,0.34359 0.34803,0.2865 0.26679,-0.10298 0.31259,-0.78196 -0.11551,-0.70368 l 0,0 z m -37.14507,-0.0858 c -0.0968,0.20755 -0.11508,0.40757 0.0984,0.54712 -0.0211,-0.19607 0.036,-0.40022 -0.0984,-0.54712 l 0,0 z m 11.60559,0.19099 0.13103,0.10739 c 0.28851,-0.26401 0.35041,-0.42866 0.56107,-0.68531 0.17505,-0.21433 0.29308,-0.22467 0.4024,-0.31375 0.0697,-0.0859 0.0611,-0.16464 0.0874,-0.28588 0.0619,-0.16464 0.17579,-0.21433 0.14654,-0.4893 0.0139,-0.23942 -0.1424,-0.5825 -0.41318,-0.51863 l -0.0607,-0.19296 c -0.11788,0.0102 -0.31022,0.0674 -0.41954,0.15633 -0.10931,0.0894 -0.0533,0.24316 -0.19751,0.37519 -0.1752,0.21387 -0.48085,0.32064 -0.55529,0.36698 -0.1139,0.0503 -0.0618,0.16459 -0.24611,0.30019 -0.25764,0.18171 -0.42767,0.0777 -0.58057,0.13141 -0.19234,0.0566 -0.4773,0.36009 -0.62163,0.49212 -0.21065,0.25666 -0.27181,0.42125 -0.36,0.70713 -0.0309,0.0817 -0.0968,0.20681 -0.0492,0.28237 0.0474,0.0749 0.16545,0.064 0.24034,0.0175 0.1529,-0.0531 0.48942,-0.24173 0.61203,-0.21313 0.11729,-0.0107 0.1653,0.0644 0.24833,0.0966 0.12202,0.0283 0.20046,0.0215 0.28333,0.0537 0.0824,0.0328 0.17402,0.1434 0.26103,0.21495 0.20903,0.1 0.41969,-0.15667 0.48144,-0.3207 0.0309,-0.0823 0.0613,-0.16464 0.0488,-0.28232 l 0,0 z m 0.22838,-3.03691 0.005,0.0396 -0.0442,-0.0356 0.0396,-0.006 0,0 z m 0.34804,0.28628 c 0.10415,0.22897 0.48765,0.47223 0.70525,0.6514 0.0743,-0.0464 0.10931,-0.0892 0.14018,-0.1712 0.0968,-0.20726 0.0544,-0.60053 -0.1551,-0.70085 -0.12587,-0.068 -0.27935,-0.0141 -0.39266,0.035 -0.005,-0.039 -0.0561,-0.15357 -0.0996,-0.18957 -0.30918,-0.28973 -0.69608,0.53875 -0.1981,0.37496 l 0,0 z m -1.64344,-0.52717 c 0.26502,0.25401 0.2696,0.29312 0.6234,0.26141 -0.0539,0.24293 -0.36872,0.62851 -0.62635,0.45324 -0.16945,-0.104 -0.18658,-0.26124 -0.26901,-0.29351 -0.12645,-0.068 -0.1362,0.21065 -0.20608,0.29622 -0.16722,0.29278 -0.44642,0.27831 -0.4739,0.75698 l 0.14876,-0.0932 c 0.15112,0.30414 0.43165,-0.0384 0.62,-0.13452 -0.035,0.043 -0.10532,0.12892 -0.13576,0.21065 -0.0275,0.12169 0.10371,0.22919 0.2176,0.17889 0.11331,-0.0497 0.24951,-0.26062 0.35838,-0.34986 0.10991,-0.0888 0.14877,-0.0924 0.26266,-0.14266 0.10932,-0.0888 0.25364,-0.22083 0.36355,-0.31007 0.32854,-0.26746 0.34508,-0.11033 0.46016,-0.51762 -0.009,-0.0785 0.0263,-0.1214 0.0177,-0.20002 -0.15629,-0.34325 -0.71943,-0.0543 -0.76359,-0.09 l -0.24449,-0.0578 c -0.0824,-0.0322 -0.23577,0.0209 -0.35307,0.0317 l 0,0 z m 1.81569,-0.0832 -0.19633,0.0175 0.0522,0.11434 c 0.23177,-0.0604 0.38866,-0.0747 0.39841,-0.35331 -0.19648,0.0175 -0.23592,0.0209 -0.25424,0.22156 l 0,0 z m -12.37657,0.75127 -0.18214,0.88974 0.0814,0.38932 0.16367,0.77902 c 0.10075,-0.16742 0.28157,-0.69967 0.29989,-0.8997 l 0.0447,-0.32182 c 0.0137,-0.23914 0.0446,-0.32115 -0.0595,-0.55012 l -0.25423,0.22111 -0.0155,-0.51434 -0.0783,0.007 0,0 z m 12.78355,-1.02625 c -0.0251,-0.23586 0.0183,-0.19985 0.21864,-0.17832 l -0.003,-0.39666 c -0.1139,0.0497 -0.27078,0.0642 -0.38069,0.15312 -0.1752,0.21404 -0.15333,0.41096 0.16487,0.42186 l 0,0 z m -1.16776,-0.53016 0.13457,0.14662 c 0.27078,-0.064 0.35779,0.007 0.60213,0.0651 l -0.0956,-0.15029 0.10075,-0.16769 c 0.23592,-0.0209 0.25424,-0.22128 0.15467,-0.41068 -0.0435,-0.0356 -0.1266,-0.068 -0.17003,-0.104 -0.42308,-0.23959 -0.46312,0.12112 -0.56387,0.28882 l -0.16264,0.33217 0,0 z m 1.01723,-0.13096 c 0.0784,-0.007 0.15748,-0.0141 0.23178,-0.0602 0.14433,-0.13215 0.0631,-0.52191 -0.0641,-0.58974 -0.12187,-0.0288 -0.18761,0.096 -0.17904,0.17465 l -0.0269,0.12186 0.0211,0.1963 0.0171,0.15712 0,0 z m -12.6308,0.97295 c 0.14019,-0.17126 0.18894,-0.45358 0.20726,-0.65377 -0.26221,0.14294 -0.23695,0.37851 -0.20726,0.65377 l 0,0 z m 1.39216,-2.54574 c 0.0378,0.35387 -0.007,0.67531 -0.13044,1.00386 -0.15807,0.37156 -0.53934,0.88194 -0.61941,1.24599 l -0.091,-0.11095 c -0.17121,0.25355 -0.19071,0.81119 -0.0818,1.07909 0.21406,-0.2176 0.26325,-0.49992 0.39487,-0.7498 0.25941,-0.53903 0.60567,-1.00652 0.73848,-1.61394 0.0229,-0.1608 0.0549,-0.60036 -0.0412,-0.75037 -0.0476,-0.0752 -0.087,-0.0716 -0.16944,-0.10388 l 0,0 z m 35.77979,1.04099 c 0.20622,-0.2965 0.26118,-0.89624 0.34007,-1.26108 0.18672,-0.84996 0.58055,-1.24232 0.46592,-2.30378 -0.0251,-0.23574 -0.11552,-0.70396 -0.39827,-0.75822 -0.44081,-0.0396 -0.25999,0.53926 -0.28629,0.66072 0.0127,0.11813 -0.0183,0.20014 -0.0493,0.28244 -0.19322,0.41407 -0.10281,0.88228 -0.096,1.31817 l -0.0836,1.4363 0.10754,0.62545 0,0 z m -6.36312,-6.77234 c 0.008,0.0784 0.0514,0.11446 0.0996,0.1894 0.0434,0.0362 0.0872,0.0717 0.13059,0.1075 0.25291,0.13605 0.38468,-0.11372 0.28836,-0.26417 -0.0467,-0.0751 -0.20829,-0.10033 -0.28718,-0.0931 -0.078,0.007 -0.15688,0.0141 -0.23134,0.0604 l 0,0 z m 5.8777,-0.68548 c 0.0378,0.35388 0.17992,0.93666 0.33208,1.2404 l 0.34686,0.6436 0.40979,1.23333 c 0.21066,-0.257 0.0987,-0.56452 0.0298,-0.83611 -0.17726,-0.53971 -0.43283,-1.07253 -0.64556,-1.56923 -0.14772,-0.26457 -0.25526,-0.5331 -0.47301,-0.71199 l 0,0 z m -2.17186,-0.63874 -0.0319,0.43928 -0.53713,-0.19014 c -0.009,0.2791 0.11581,0.70436 0.338,0.92242 l 0.43135,0.31861 c 0.34804,0.28644 0.70082,0.61217 1.0134,0.94112 0.27476,0.33279 0.28717,0.45075 0.38231,0.60081 0.0872,0.0714 0.17402,0.14322 0.28747,0.0932 0.0745,-0.0463 0.0928,-0.24631 0.1235,-0.32861 l 0.13177,-0.24993 c 0.0573,-0.20342 -0.094,-0.50727 -0.19352,-0.69695 l -0.25999,-0.57194 c -0.10873,-0.26819 -0.17403,-0.50048 -0.35602,-0.72221 -0.30904,-0.28984 -0.54481,-0.26876 -0.87129,-0.35874 l -0.45794,-0.19692 0,0 z m -10.93137,0.54271 c -0.0231,0.16092 -0.0367,0.40051 -0.22898,0.45725 -0.039,0.006 -0.20031,-0.0215 -0.24404,-0.0576 l -0.14979,0.45019 c -0.0665,0.1248 -0.19012,0.45346 -0.17639,0.57159 -0.0183,0.19974 0.25646,0.1751 0.3962,0.006 0.14537,-0.13203 0.16368,-0.33217 0.26443,-0.49992 0.1625,-0.332 0.46357,-0.47839 0.5002,-0.87827 l -0.36163,-0.0475 0,0 z m 12.17817,-1.48813 c 0.117,0.34698 0.19913,0.37926 0.39059,0.67961 0.0996,0.18957 0.0733,0.31097 0.30431,0.25061 -0.13827,-0.18601 -0.52412,-0.82622 -0.6949,-0.93022 l 0,0 z m -16.47609,2.11121 c -0.44081,-0.0396 -0.14994,0.45019 -0.20726,0.65361 -0.0962,0.20726 -0.53801,0.52468 -0.75207,0.38501 -0.11345,0.0503 -0.23134,0.0606 -0.3538,0.0317 -0.12143,-0.0288 -0.20844,-0.10033 -0.32632,-0.0897 l -0.62621,0.45301 c -0.10991,0.0891 -0.25764,0.18171 -0.41555,0.19573 -0.11686,0.0107 -0.27477,0.0243 -0.34465,0.11067 -0.1099,0.0888 -0.006,0.3177 0.047,0.43204 l 0.18658,0.26124 c -0.38468,0.11372 -0.35498,0.38869 -0.31717,0.74285 0.0217,0.19635 0.0974,0.90399 0.15348,1.05766 0.0606,0.19325 0.31821,0.36846 0.52207,0.42928 0.12704,0.0684 0.32736,0.0898 0.44524,0.0795 l 0.0275,-0.47896 0.11803,-0.0102 0.12128,0.38615 c 0.039,-0.006 0.11789,-0.0107 0.15688,-0.0141 l 0.48883,0.11524 c 0.0436,0.0356 0.0436,0.0356 0.087,0.0714 0.0515,0.11434 -0.0446,0.32154 -0.0321,0.43956 0.0687,0.27141 0.35262,0.32555 0.58853,0.3043 -0.006,0.31793 0.0251,0.23586 0.007,0.43589 0.0217,0.19663 -0.0962,0.20726 0.14655,0.62195 0.0481,0.0749 0.14772,0.26463 0.26561,0.254 0.11788,-0.0107 0.36296,-0.31041 0.62517,-0.45284 0.0606,0.19274 0.0652,0.2323 0.23459,0.3363 l -0.0572,0.20341 0.44642,-0.27802 c -0.1328,0.60714 -0.38571,0.47099 -0.66166,0.85289 -0.0974,0.20738 -0.0367,0.40034 -0.094,0.60387 l 0.0436,0.0356 0.14876,-0.0926 0.11345,-0.0497 c 0.34908,-0.0712 0.0779,0.35009 0.0858,0.42871 0.0126,0.11813 0.0962,0.15001 0.1786,0.18262 l -0.18436,0.13525 0.10872,0.2683 -0.70745,0.0634 c -0.34922,0.071 -0.63891,0.33505 -0.932,0.55972 l 0.009,0.0786 0.12143,0.0288 -0.67777,0.33873 c 0.2049,0.0606 0.47169,-0.0424 0.66861,-0.0601 0.19234,-0.0571 0.15688,-0.0136 0.38926,-0.0748 l 0.12585,0.0686 -0.0229,0.16063 0.8633,0.27949 c 0.2049,0.0611 0.35381,-0.0317 0.48085,0.0367 0.16944,0.104 0.11212,0.30741 0.39605,0.36105 0.32633,0.0899 0.58514,-0.0918 0.85533,-0.15588 l -0.31953,0.34636 0.14773,0.26463 0.38467,-0.11372 c -0.2851,0.303 -0.27137,0.064 -0.8209,0.11315 0.126,0.068 0.50034,0.23264 0.58395,0.26519 0.2049,0.0612 0.31362,-0.0288 0.60213,0.0652 0.2439,0.0571 0.54038,0.22919 0.61941,-0.13559 0.048,0.0756 0.0962,0.15045 0.1396,0.18646 0.12616,0.068 0.20505,0.0611 0.32766,0.0897 0.16131,0.0254 0.54363,0.26864 0.52649,0.46878 -0.0355,0.043 -0.0709,0.0857 -0.10518,0.12864 -0.0529,-0.11491 -0.10429,-0.22868 -0.19588,-0.33958 -0.22543,-0.25784 -0.5714,-0.14752 -0.85519,-0.20178 l -0.5714,-0.14695 -0.44066,-0.0401 c -0.23931,-0.0187 -0.37448,-0.16459 -0.61025,-0.1435 -0.079,0.007 -0.19234,0.0566 -0.18318,0.13542 0.008,0.0783 0.095,0.15046 0.13856,0.18584 0.25291,0.13599 0.16132,0.0249 0.54496,0.26858 0.21288,0.13955 0.28733,0.0933 0.49223,0.1543 l 0.20947,0.10061 c 0.16146,0.0254 0.19233,-0.0571 0.3538,-0.0322 0.0779,-0.007 0.23931,0.0187 0.32278,0.0509 l -0.68219,0.29905 -0.52325,-0.072 c 0.10414,0.22862 0.14772,0.26462 -0.0275,0.47839 l -0.0962,-0.14973 c -0.10533,0.12802 -0.0962,0.20692 -0.2015,0.33539 l -0.1752,0.21394 c -0.0309,0.0823 -0.1362,0.21093 -0.21524,0.21771 -0.11788,0.0107 -0.25187,-0.13599 -0.34006,-0.20743 -0.16944,-0.10411 -0.24832,-0.0972 -0.44066,-0.0401 0.14417,0.22524 0.21863,0.17889 0.42692,0.27893 0.17062,0.104 0.60568,0.46183 0.74084,0.60878 -0.0402,0.006 -0.079,0.007 -0.10991,0.0892 -0.0699,0.0857 0.007,0.436 0.0984,0.54633 0.087,0.072 0.17062,0.10399 0.28733,0.0938 l -0.46814,0.43905 c 0.20489,0.0605 0.27934,0.0141 0.45337,0.15769 l -0.39281,0.035 -0.51852,-0.38971 -0.54038,-0.22982 c 0.20151,0.0215 0.5197,0.0334 0.70747,-0.0634 0.33666,-0.18872 0.17638,-0.57103 -0.0847,-0.78592 -0.16945,-0.10417 -0.28748,-0.0933 -0.48779,-0.11496 -0.16147,-0.0254 -0.40979,-0.12226 -0.56786,-0.10812 l -0.42811,0.0783 0.0275,-0.12169 c -0.12261,-0.0288 -0.16604,-0.0646 -0.27595,0.0243 -0.13059,-0.1075 -0.13399,-0.14628 -0.29545,-0.17154 l 0.0207,0.19607 -0.1786,-0.18234 -0.0171,0.20003 c -0.0962,-0.15029 -0.10075,-0.18912 -0.26562,-0.25372 l 0.13281,0.5036 -0.0653,0.12508 c -0.21863,0.17832 -0.21641,0.57515 -0.19012,0.81118 0.0504,0.47155 -0.0549,0.60019 -0.095,0.9609 -0.0103,0.27831 0.0812,0.38926 0.006,0.79327 -0.0217,0.16063 -0.17181,0.61059 -0.23813,0.73578 l -0.1752,0.21376 -0.13162,0.24971 c -0.0665,0.12525 -0.17521,0.21432 -0.24154,0.33957 -0.0619,0.16403 0.0251,0.23603 0.0733,0.31098 0.0652,0.23202 -0.10075,0.16741 0.17284,0.50066 l -0.13975,0.17097 0.15689,-0.0141 c -0.0882,0.28588 0.0904,0.46878 0.3606,0.40475 0.19233,-0.0572 0.40299,-0.31392 0.46031,-0.5179 l 0.079,-0.007 0.52885,0.86544 c 0.0916,0.11089 0.11331,0.30753 0.27477,0.33262 0.16147,0.0254 0.22218,-0.13876 0.28851,-0.26406 0.0699,-0.0857 0.14433,-0.13198 0.21406,-0.21772 0.0974,-0.20692 -0.0938,-0.50755 -0.0755,-0.70775 0.0217,-0.16046 0.13162,-0.24971 0.14994,-0.44973 -0.0297,-0.27497 -0.23474,-0.33619 -0.36976,-0.48314 -0.13517,-0.14633 -0.15112,-0.3034 -0.17284,-0.50004 -0.0469,-0.43277 0.17624,-0.57159 0.21745,-0.93225 0.0137,-0.23959 -0.12128,-0.38592 -0.13856,-0.54361 -0.0126,-0.11784 0.0137,-0.23891 0.13177,-0.24988 0.27123,-0.064 0.30446,0.25095 0.32618,0.44714 l -0.0367,0.40005 c -0.0217,0.1612 -0.088,0.28588 -0.0663,0.48234 0.0561,0.15385 0.14772,0.2648 0.19913,0.37909 0.0916,0.11078 0.10429,0.22924 0.1913,0.30063 0.0824,0.0322 0.12587,0.0674 0.2049,0.0607 0.0824,0.0328 0.16486,0.0644 0.24389,0.0576 0.19234,-0.0572 0.39029,-0.43216 0.57347,-0.56702 0.10991,-0.0897 0.27137,-0.064 0.38926,-0.0749 -0.0663,0.12525 -0.24153,0.33957 -0.31141,0.42481 -0.14876,0.0925 -0.42012,0.1565 -0.43386,0.39609 -0.0836,0.32528 0.34804,0.28633 0.33887,0.5647 -0.0183,0.20014 -0.32278,-0.0503 -0.41554,0.19601 -0.13163,0.24988 0.0424,0.39344 0.10296,0.58651 0.0127,0.11785 -0.0526,0.24236 -0.0801,0.36422 -0.16604,0.29267 -0.30564,0.10677 -0.529,0.24575 -0.18776,0.0966 -0.39383,0.39265 -0.58617,0.44991 -0.15216,0.0531 -0.28393,-0.0543 -0.40182,-0.0441 -0.15688,0.0141 -0.2885,0.26457 -0.54954,0.0497 -0.2656,-0.25429 0.0367,-0.40005 -0.0286,-0.63269 l -0.16028,-0.38248 c -0.22321,0.13893 -0.44185,0.31788 -0.36858,0.62879 0.10873,0.26746 0.36976,0.48241 0.23356,0.69278 -0.10991,0.0892 -0.34582,0.11032 -0.529,0.24586 -0.22321,0.13944 -0.45559,0.55673 -0.53004,0.60364 -0.10991,0.0891 -0.2278,0.0994 -0.33652,0.18849 l -0.39502,0.39271 c -0.0344,0.043 -0.0344,0.043 -0.0699,0.0859 l -0.49222,-0.15447 0.0297,0.27498 c -0.19692,0.0175 -0.19692,0.0175 -0.35838,-0.007 -0.12128,-0.0294 -0.36178,-0.0469 -0.42353,0.11716 -0.0665,0.1252 0.26103,0.2149 0.34464,0.24694 0.5002,0.23321 0.59874,0.7797 0.38468,0.99804 -0.14433,0.13141 -0.3928,0.035 -0.55412,0.01 -0.36296,-0.0469 -0.93421,-0.19443 -1.29141,-0.20183 -0.47183,0.0418 -0.32056,0.34579 -0.41216,0.59227 -0.023,0.16109 -0.1718,0.25372 -0.19809,0.37496 -0.0356,0.043 -0.0309,0.0823 -0.0264,0.12169 -0.005,-0.0396 0.1294,0.46465 0.12483,0.42532 0.0561,0.15368 0.33208,0.1292 0.49354,0.1543 0.20372,0.0606 0.25645,0.17549 0.42575,0.27949 0.16604,0.064 0.2405,0.0181 0.39384,-0.0356 0.35276,-0.0322 0.68928,0.13656 1.21371,-0.1487 0.1133,-0.0497 0.22321,-0.13882 0.25408,-0.22111 0.10533,-0.12802 0.0527,-0.24298 0.19692,-0.37501 0.17978,-0.17494 0.529,-0.24587 0.71321,-0.38129 0.14433,-0.13203 0.0402,-0.36066 0.30683,-0.46409 0.19234,-0.0566 0.40536,0.0829 0.67215,-0.0204 0.23119,-0.0607 0.48085,-0.3207 0.71322,-0.38117 0.23577,-0.0209 0.38231,0.24337 0.70982,0.33319 l 1.29939,0.28 c 0.04,-0.006 0.12246,0.0294 0.16604,0.0652 0.34804,0.28588 -0.15348,0.41034 -0.34582,0.4676 -0.15334,0.0531 -0.19234,0.0565 -0.35026,0.0708 0.0446,0.0356 0.048,0.075 0.0916,0.11095 0.16603,0.0646 0.56666,0.10812 0.71203,-0.0243 0.0699,-0.0857 0.0619,-0.16459 0.0493,-0.28232 0.15216,-0.0531 0.22661,-0.0994 0.28851,-0.26407 -0.0127,-0.11767 -0.0653,-0.23196 0.0446,-0.32126 0.0699,-0.0857 0.22661,-0.1 0.34568,-0.11089 -0.18318,-0.22111 -0.33194,-0.12864 -0.57244,-0.14696 -0.12128,-0.0283 -0.16944,-0.10399 -0.2919,-0.13242 -0.11788,0.0107 -0.22661,0.1 -0.39265,0.0356 -0.12247,-0.0294 -0.25306,-0.13661 -0.37434,-0.16521 -0.12719,-0.068 -0.44997,-0.11829 -0.43165,-0.31849 0.0309,-0.0823 0.0663,-0.12508 0.14418,-0.13197 0.0356,-0.043 0.0745,-0.0463 0.11448,-0.0503 l 0.0561,0.15442 c 0.41909,-0.15662 0.28274,0.0537 0.64571,0.1006 0.32632,0.0897 0.711,-0.0243 1.04294,0.10519 0.20504,0.0605 0.13856,0.18567 0.31716,0.368 0.2176,0.17957 0.52782,0.11152 0.80245,0.0869 -0.0343,0.043 -0.0742,0.0469 -0.0697,0.0857 -0.0665,0.12525 0.0207,0.19663 0.10429,0.22862 0.29516,0.17216 0.7339,-0.18454 0.35838,-0.34913 l 0.60331,-0.29209 c -0.2919,-0.1326 -0.43638,0 -0.81987,-0.24411 0.19706,-0.0181 0.23577,-0.0209 0.38024,-0.15329 l 0.0227,-0.16108 0.63876,-0.335 c -0.20238,0.33562 0.0254,0.23603 0.10194,0.58651 0.19706,-0.0181 0.44081,0.0396 0.63787,0.022 0.15335,-0.0537 0.57229,-0.21032 0.6822,-0.29956 0.10872,-0.0891 0.1362,-0.21031 0.24492,-0.29945 l 0.4547,-0.19957 c 0.18437,-0.13542 0.32411,-0.30685 0.46475,-0.47839 0.0697,-0.0857 0.13975,-0.17143 0.26236,-0.14238 0.16486,0.0647 0.20711,0.45793 0.22425,0.61517 0.0526,0.11429 0.10872,0.2674 0.12142,0.3857 -0.0242,0.51795 -0.56903,0.60658 -0.89757,0.87403 -0.21864,0.17832 -0.38586,0.47099 -0.61365,0.57097 -0.29309,0.22467 -1.13247,0.53802 -1.51714,0.65174 l -0.81633,0.15255 c -0.18761,0.0966 -0.40624,0.27491 -0.46799,0.43899 -0.062,0.16459 0.0375,0.35388 -0.15009,0.44991 -0.18791,0.0966 -0.96968,0.20573 -1.17014,0.18465 -0.32278,-0.0509 -0.21405,-0.14012 -0.68574,-0.0978 -0.43165,0.039 -0.89876,0.12067 -1.344,0.0413 0.0697,-0.0857 0.21065,-0.25728 0.23695,-0.37841 0.0309,-0.0823 -0.0126,-0.11829 -0.0217,-0.19663 -0.003,-0.039 -0.0127,-0.11768 -0.0561,-0.15368 -0.0916,-0.11095 -0.40536,-0.0829 -0.52324,-0.0721 -0.27138,0.064 -0.22322,0.13893 -0.65487,0.17776 l -1.45052,0.16978 c -0.70642,0.063 -1.27087,0.35207 -1.54565,0.37671 -0.19691,0.0181 -0.63772,-0.022 -0.84262,-0.0835 -0.1659,-0.0646 -0.33992,-0.20799 -0.52782,-0.11134 -0.19234,0.0571 -0.25409,0.22111 -0.4807,0.32053 -0.22794,0.10015 -0.65944,0.13898 -0.91826,0.32069 -0.25763,0.18183 -0.12306,0.32867 -0.42471,0.47455 -0.15289,0.0537 -0.66757,0.0598 -0.86434,0.0775 -0.43623,0 -0.65502,0.17793 -1.03556,0.33104 l -0.41968,0.15668 c -0.15275,0.0531 -0.46312,0.12067 -0.52886,0.24575 -0.0659,0.12463 0.0297,0.27497 0.0424,0.39327 0.0125,0.11768 -0.0139,0.23891 -0.0408,0.36066 -0.20548,0.29617 -0.73493,0.54197 -0.64851,0.97119 0.0687,0.27158 0.23016,0.29662 0.53462,0.54695 0.40019,0.40078 0.69948,0.96949 1.13054,1.28793 0.55707,0.38694 1.36306,0.87047 2.0522,1.00708 l 1.19642,0.0514 c 0.64113,0.0612 1.1335,0.21612 1.80669,0.19504 l 1.47917,-0.25151 c 0.3148,-0.0283 0.78191,-0.10976 1.10927,-0.0198 0.3275,0.0897 0.39161,0.32233 0.98118,0.2692 l 0.82092,-0.1131 c 0.19233,-0.0566 0.34567,-0.11037 0.55412,-0.01 0.50596,0.2722 -0.35145,0.78535 0.04,1.1078 0.21761,0.17895 0.93762,0.23321 1.22612,0.3263 0.20047,0.022 0.83229,0.36184 0.9676,0.50879 0.0869,0.0714 0.0948,0.15029 0.18644,0.26124 0.0904,0.11089 0.29663,0.17154 0.30903,0.28984 0.0127,0.11773 -0.24138,0.33901 -0.3114,0.42469 -0.21509,0.21772 -0.63182,0.77106 -0.39709,1.10724 0.0916,0.11072 0.34007,0.20737 0.46711,0.27537 l 1.14605,0.33381 c 0.49666,0.19381 0.5392,0.58708 0.84026,0.79807 0.21303,0.13994 0.56668,0.10795 0.84617,0.12287 l 1.18151,0.29086 c 0.41097,0.12242 0.23932,0.37558 0.56195,0.42588 0.6813,0.0584 1.72691,-0.55153 2.28206,-0.91857 l 1.12773,-0.57736 c 0.45115,-0.2388 0.8574,-0.51377 1.26394,-0.78812 0.77053,-0.58476 1.40132,-1.35593 1.78364,-2.22357 0.13176,-0.24977 0.50492,-0.83922 0.52797,-0.99968 0.0526,-0.24293 -0.20062,-0.37908 -0.10312,-0.58589 0.12705,-0.28989 0.63995,-0.69288 0.76256,-1.02092 0.10193,-0.16804 0.0721,-0.44301 -0.0987,-0.54701 -0.16487,-0.0646 -0.27477,0.0243 -0.60213,-0.0652 0.24729,-0.65688 0.6949,-1.29251 1.06717,-1.88179 0.17165,-0.25315 0.47833,-0.71736 0.48424,-1.03506 10e-4,-0.35732 -0.3185,-0.3688 -0.45234,-0.51513 -0.13058,-0.10739 -0.10074,-0.18974 -0.18317,-0.22229 -0.16487,-0.064 -0.42812,0.0783 -0.58943,0.0531 -0.11818,0.0102 -0.20503,-0.061 -0.28747,-0.0931 -0.12704,-0.068 -0.2795,-0.0147 -0.39738,-0.006 -0.17727,-0.53961 0.19234,-1.5251 0.37345,-2.05718 0.35247,-1.14279 0.8243,-2.29677 0.65353,-3.51151 l -0.18082,-0.9362 c -0.0514,-0.11496 -0.14653,-0.26469 -0.29987,-0.21156 -0.23134,0.0607 -0.4352,0.75348 -0.53123,0.96029 l -0.53122,0.96084 c -0.13619,0.21037 -0.22453,0.49625 -0.40417,0.67107 -0.14448,0.1322 -0.37227,0.23162 -0.55988,0.32765 -0.0609,-0.19268 -0.17402,-0.14294 -0.32736,-0.0892 l -0.71233,0.38128 c -0.14861,0.0926 -0.44169,0.31731 -0.63876,0.335 -0.15689,0.0141 -0.24848,-0.0966 -0.47952,-0.0367 -0.15689,0.0141 -0.42367,0.11768 -0.54628,0.0885 -0.16132,-0.0249 -0.33534,-0.16798 -0.49695,-0.19308 -0.12114,-0.0294 -0.35366,0.0317 -0.46711,0.0812 -0.39295,0.0356 -1.00778,-0.14814 -1.41403,-0.23044 0.0745,-0.0464 0.15335,-0.0531 0.14536,-0.13203 0.0573,-0.20342 -0.25645,-0.53265 0.12823,-0.64654 0.039,-0.006 0.11788,-0.0107 0.15688,-0.0141 l 0.67186,-0.0209 0.3897,-0.0743 c 0.20031,0.0221 0.25291,0.13611 0.52767,0.11146 l 0.96524,-0.24513 c 0.39383,-0.0356 0.55279,0.34755 0.96051,0.0726 0.33208,-0.22806 0.64467,-1.01059 0.76374,-1.3782 l 0.34331,-0.86425 0.13295,-0.60698 c 0.1498,-0.45052 0.286,-0.66089 0.23105,-1.17189 l -0.0801,-0.74709 c -0.0343,-0.31437 -0.0984,-0.54701 -0.42249,-0.24004 -0.25055,0.26067 -0.33889,0.54638 -0.73952,0.50303 -0.10636,0.4859 -0.039,1.11458 -0.52442,1.39651 -0.18436,0.13542 -0.38911,0.0742 -0.58026,0.13141 -0.11464,0.0497 -0.26355,0.14294 -0.34598,0.11032 -0.11789,0.0102 -0.20474,-0.0612 -0.21745,-0.17894 0.0219,-0.16063 0.28865,-0.26401 0.40299,-0.31386 0.38025,-0.15317 0.57259,-0.21037 0.85297,-0.55277 0.17047,-0.25372 0.18879,-0.45386 0.325,-0.66423 0.13974,-0.17137 0.26235,-0.14277 0.4021,-0.31374 0.10519,-0.12864 0.2987,-0.54299 0.39945,-0.71052 l 0.4807,-1.43234 c 0.23252,-0.41792 0.62192,-0.4923 0.72386,-1.01754 l 0.0606,0.19319 c 0.4157,-0.19602 0.41215,-0.59268 0.33091,-0.98194 0.23576,-0.0209 0.71558,0.0147 0.90792,-0.0418 l 0.89166,-0.55611 c 0.22337,-0.13954 0.5909,-0.4105 0.6435,-0.65349 0.0617,-0.16402 -0.19352,-0.69667 -0.28512,-0.80756 -0.0469,-0.075 -0.0904,-0.11095 -0.17401,-0.14294 -0.20505,-0.0611 -0.47509,0.006 -0.62282,-0.26186 -0.18318,-0.22173 -0.38585,-0.9973 -0.53683,-1.3015 -0.32529,-0.80423 -0.34685,-0.6436 -0.49931,-0.94745 -0.0996,-0.1894 -0.0812,-0.3896 -0.10311,-0.58623 -0.0558,-0.1534 -0.14743,-0.26429 -0.15541,-0.34325 -0.0174,-0.15707 0.0925,-0.24632 0.19796,-0.37467 0.16603,-0.29295 0.14063,-0.52864 0.32056,-0.70363 0.14418,-0.13203 0.27122,-0.0637 0.33651,-0.18878 0.24168,-0.33901 -0.34213,-0.6042 -0.14536,-0.97921 0.10076,-0.16787 0.38586,-0.47099 0.58263,-0.48885 0.15245,-0.0531 0.2795,0.0147 0.43165,-0.0384 0.14891,-0.0929 0.15925,-0.37157 0.221,-0.53593 0.15334,-0.41062 0.39384,-0.39237 0.45234,-0.95305 0.0183,-0.20014 0.0275,-0.47912 -0.0677,-0.62913 -0.18317,-0.22201 -0.4408,-0.0401 -0.50255,0.12435 -0.1362,0.21037 -0.10636,0.4859 -0.0813,0.72165 -0.0139,0.23925 -0.0585,0.56068 -0.19471,0.77134 -0.16604,0.29294 -0.5061,0.0852 -0.60212,-0.0648 -0.0469,-0.0752 -0.016,-0.15724 -0.0251,-0.23614 0.006,-0.31804 -0.086,-0.42871 -0.006,-0.79304 0.0218,-0.16097 0.17165,-0.61087 0.12497,-0.68593 -0.0139,-0.11802 -0.37463,-0.52191 -0.46504,-0.63314 -0.17845,-0.18228 -0.5002,-0.59019 -0.79771,-0.40458 -0.26236,0.14232 -0.20741,0.65361 -0.25646,0.93564 -0.0266,0.12141 -0.0804,0.36433 -0.19824,0.37496 -0.0733,0.0464 -0.20475,-0.0612 -0.29073,-0.1326 -0.22217,-0.21828 -0.3572,-0.36495 -0.39502,-0.71883 0.12143,0.0288 0.4488,0.11864 0.47155,-0.0424 -0.0171,-0.15707 -0.20357,-0.4183 -0.36163,-0.404 -0.16132,-0.0254 -0.18319,0.13542 -0.39739,-0.006 -0.17402,-0.14322 -0.55988,-0.78343 -0.74306,-1.00527 -0.22985,-0.29696 -0.57346,-0.5439 -0.90998,-0.71221 -0.20387,-0.0608 -0.86685,-0.31923 -1.05092,-0.18347 -0.0745,0.0464 -0.062,0.16402 -0.0928,0.24603 -0.0434,-0.0356 -0.0872,-0.0714 -0.16486,-0.0645 -0.28393,-0.0537 -0.36754,0.27113 -0.38586,0.47133 0.008,0.0785 0.0251,0.23603 -0.0883,0.28571 -0.11434,0.0497 -0.20149,-0.0215 -0.28866,-0.0934 -0.21302,-0.13955 -0.21745,-0.17895 -0.50492,-0.27215 0.0561,0.15374 0.11227,0.30753 0.20741,0.45759 0.23104,0.2969 0.38792,0.2826 0.35129,0.68311 -0.33091,-0.12926 -0.70524,-0.29385 -0.93185,-0.5517 l 0.30579,-0.10677 -0.008,-0.0783 c -0.12587,-0.0683 -0.55752,-0.38677 -0.57465,-0.5439 -0.0127,-0.11801 0.14418,-0.13231 0.13177,-0.25016 0.0275,-0.12141 -0.0996,-0.1894 -0.0378,-0.35376 0.10517,-0.12859 0.33297,-0.22834 0.31583,-0.38558 -0.009,-0.0786 -0.096,-0.15001 -0.17845,-0.18234 -0.16959,-0.10394 -0.47065,-0.31493 -0.65029,-0.14028 -0.14418,0.13203 -0.0355,0.40005 -0.11552,0.76444 -0.12261,-0.0283 -0.33208,-0.1291 -0.45352,-0.1577 -0.16131,-0.0254 -0.34922,0.0708 -0.55869,-0.0294 -0.28836,-0.0934 -0.39148,-0.32233 -0.63995,-0.41921 -0.45795,-0.19692 -0.84262,-0.0829 -1.27073,-0.006 -0.19589,0.0175 -0.51084,0.0458 -0.69845,0.14175 -0.14891,0.093 -0.21538,0.21778 -0.28067,0.34269 -0.17491,0.21432 -0.52088,0.32437 -0.48632,0.63873 0.0686,0.27187 0.30904,0.29012 0.39591,0.36123 l 0.25084,0.49387 c -0.27034,0.0638 -0.39738,-0.006 -0.63197,0.017 l -0.93082,0.20223 c -0.47626,0.006 -0.62399,-0.26141 -0.9159,-0.39401 -0.16486,-0.0646 -0.28275,-0.0543 -0.40978,-0.12214 -0.1306,-0.10705 -0.14315,-0.22506 -0.18674,-0.26123 -0.0916,-0.11044 -0.49221,-0.1543 -0.6101,-0.14368 0.008,0.079 0.0126,0.11802 -0.0573,0.20342 -0.0663,0.12525 -0.40299,0.3142 -0.55988,0.32821 -0.0743,0.0464 -0.19692,0.0175 -0.27935,-0.0147 l 0.0218,-0.16092 c 0.0183,-0.19974 -0.0997,-0.18928 -0.25187,-0.13598 -0.23252,0.0605 -0.37212,0.23173 -0.55648,0.36727 0.0665,-0.12491 0.12822,-0.28928 0.23355,-0.41758 0.14433,-0.13203 0.33667,-0.18928 0.52443,-0.28531 l 0.59414,-0.37066 c 0.14877,-0.0926 0.37671,-0.19268 0.48543,-0.28176 0.32854,-0.26757 0.39724,-1.1069 0.31141,-1.53589 -0.60789,0.25254 -0.44658,0.27774 -0.85754,0.51321 -0.14877,0.0926 -0.2278,0.0998 -0.34111,0.14955 -0.10887,0.0894 -0.13634,0.21094 -0.16264,0.33206 l 0,0 z m 4.1697,-1.44506 0.38703,0.28295 0.29516,0.52897 c 0.2269,-0.0997 0.25763,-0.18171 0.41126,-0.23512 0.0742,-0.0463 0.56313,0.0686 0.44968,-0.23869 -0.0434,-0.0362 -0.0869,-0.0717 -0.13029,-0.10739 l -0.0263,0.12141 c -0.13059,-0.10739 -0.30461,-0.25061 -0.47065,-0.31522 -0.16605,-0.0643 -0.72031,-0.0543 -0.9159,-0.0367 l 0,0 z m 1.33041,0.19845 c 0.54953,-0.0492 0.4544,-0.19958 0.76935,-0.22761 0.15216,-0.0537 0.3959,0.006 0.55752,0.0294 l -0.0219,0.16063 c 0.33091,0.12921 0.31023,-0.0674 0.55427,-0.0102 0.24848,0.0969 0.40063,0.40107 0.81042,0.52281 0.16486,0.0649 0.24848,0.0969 0.39738,0.006 0.0948,0.15029 0.13502,0.1469 0.29191,0.1326 0.0183,-0.20002 0.13147,-0.25004 0.0789,-0.36439 -0.0514,-0.11462 -0.46592,-0.27582 -0.50137,0.12452 -0.13975,-0.18629 -0.0653,-0.23258 -0.11671,-0.34664 -0.13975,-0.18629 -0.41895,-0.20093 -0.61158,-0.14396 -0.0813,-0.38959 -0.0295,-0.27525 -0.57347,-0.5439 -0.17047,-0.10382 -0.54481,-0.26875 -0.74631,-0.29045 -0.23931,-0.0181 -0.30106,0.14604 -0.48897,0.24236 -0.10518,0.12864 -0.22779,0.0997 -0.33652,0.189 -0.10548,0.1283 -0.0801,0.36433 -0.0629,0.52157 l 0,0 z m 8.30275,-1.73637 0.49694,0.55108 c 0.18673,0.26101 0.37315,0.52219 0.59534,0.74025 0.17402,0.14322 0.42249,0.24015 0.65383,0.17979 0.15334,-0.0537 0.61689,-0.53158 0.23813,-0.7359 -0.12615,-0.0679 -0.31495,0.0283 -0.43165,0.039 0.009,-0.27865 -0.008,-0.43589 -0.0768,-0.70758 -0.008,-0.0787 -0.0251,-0.23575 -0.17875,-0.18234 -0.18761,0.0963 0.0334,0.67158 -0.26324,0.49976 l -0.12587,-0.068 -0.13059,-0.10738 c -0.14063,0.17108 0.0251,0.23569 0.16044,0.38236 0.17401,0.1435 0.30786,0.29012 0.33415,0.52586 -0.42693,-0.27955 -0.45204,-0.51495 -0.72681,-0.84758 -0.17757,-0.18262 -0.30816,-0.29017 -0.5451,-0.26909 l 0,0 z m 1.70474,-0.39061 c 0.10755,0.26802 0.52886,0.86544 0.81752,0.95853 -0.19589,-0.33958 -0.44761,-0.83311 -0.81752,-0.95853 l 0,0 z m -29.08916,2.88401 c 0.11789,-0.0102 0.27536,-0.0249 0.35366,-0.0317 l 1.02477,0.30504 c 0.28392,0.0543 0.56327,0.0687 0.74985,0.32969 -0.51069,0.0458 -0.40182,-0.0435 -0.80717,-0.12599 -0.36178,-0.0469 -0.47169,0.0424 -0.75104,0.0277 -0.16147,-0.0254 -0.24389,-0.0574 -0.36636,-0.086 l -1.0521,0.17352 c -0.27935,-0.0147 -0.34005,-0.20754 -0.5061,-0.27214 -0.16945,-0.104 -0.32279,-0.0509 -0.47169,0.0424 -0.26561,0.1032 -0.52428,0.28497 -0.7825,0.46702 -0.48144,0.32065 -1.03659,0.68809 -1.38301,1.15574 -0.24093,0.33895 -0.18081,0.53219 -0.4219,0.8712 -0.24492,0.29973 -0.80938,0.58838 -1.19066,1.09904 -0.2764,0.38197 -0.25128,0.61766 -0.35602,0.7463 -0.0705,0.0854 -0.55589,0.36727 -0.66979,0.41701 -0.1133,0.0497 -0.23118,0.0604 -0.30564,0.10694 -0.10932,0.0891 -0.1752,0.21404 -0.24153,0.33912 l -0.38926,0.43165 c -0.10075,0.16769 -0.5095,0.79965 -0.53181,0.96056 -0.01,0.27865 0.44023,0.39728 0.20268,0.77563 -0.035,0.0424 -0.0699,0.0856 -0.10489,0.12859 -0.25807,0.18177 -0.32735,-0.0899 -0.52767,-0.11163 -0.24448,-0.0575 -0.60789,0.25281 -0.82549,0.0739 -0.13502,-0.14661 -0.0773,-0.35003 -0.0938,-0.50738 -0.0607,-0.19297 -0.14773,-0.26452 -0.20386,-0.41826 -0.10017,-0.18979 -0.0205,-0.55418 -0.29885,-0.92603 -0.143,-0.22512 -0.30845,-0.28972 -0.43609,-1.7e-4 l -0.0928,0.24609 c -0.1557,-0.34302 -0.0677,-0.62884 -0.35158,-0.68316 -0.36163,-0.0463 -0.47213,0.39994 -0.68279,0.65671 -0.5256,0.64258 -0.61306,0.57103 -1.01561,0.88466 l -0.53403,0.5639 -0.33312,0.22835 c -0.17919,0.17482 -0.29825,0.54271 -0.39044,0.78902 l -0.38526,1.58252 c -0.0842,0.32465 -0.22558,0.85391 -0.57067,0.96368 -0.11345,0.0497 -0.47168,0.0424 -0.5937,0.0136 -0.12646,-0.0681 -0.21746,-0.17883 -0.33948,-0.208 -0.11788,0.0107 -0.43268,0.039 -0.72459,-0.0938 -0.17402,-0.14277 -0.40417,-0.44001 -0.57021,-0.50405 -0.16546,-0.0652 -0.32279,-0.0509 -0.47967,-0.0367 -0.19692,0.017 -0.47169,0.0424 -0.63315,0.017 -0.40979,-0.12203 -0.67437,-0.73341 -0.83007,-1.07672 -0.056,-0.15368 -0.16028,-0.38264 -0.28673,-0.45063 -0.17403,-0.14323 -0.38409,0.11377 -0.58898,0.0526 -0.16147,-0.0254 -0.51867,-0.39005 -0.72755,-0.49065 -0.0436,-0.0356 -0.17461,-0.14294 -0.24847,-0.0966 -0.0785,0.007 -0.10134,0.16798 -0.13178,0.24971 -0.006,0.31821 0.082,0.3896 0.26399,0.61161 0.0434,0.0356 0.1786,0.18245 0.0687,0.27158 -0.18318,0.13537 -0.4476,-0.4759 -0.65369,-0.17957 -0.031,0.0824 -0.0264,0.12158 -0.0619,0.16408 l -0.0784,0.007 -0.18998,-0.65762 -0.0292,-0.27525 -0.26443,-0.61127 -0.32396,0.30679 -0.0774,-0.35031 -0.10813,-0.26802 c -0.0607,-0.19296 -0.21746,-0.17895 -0.36636,-0.0865 -0.29309,0.22501 -0.49577,0.56057 -0.67895,0.696 -0.22321,0.13926 -0.39324,0.035 -0.54599,0.0886 -0.18776,0.0964 -0.31953,0.34607 -0.37729,0.54994 l -0.30224,1.61451 c -0.26162,1.25397 -0.4287,1.54663 -0.28452,2.88306 l 0.1591,0.73979 0.14949,1.01856 0.1334,0.50405 0.0789,-0.007 c -0.055,-0.51094 -0.0389,-1.46507 0.10651,-1.9542 0.14197,-0.52824 0.36873,-0.62822 0.3801,-1.26447 l 0.094,0.50817 c 0.21465,-0.21845 0.19795,-0.37557 0.49916,-0.52128 0.10016,0.18911 0.1436,0.22523 0.20831,0.45787 0.0607,0.19251 0.0772,0.34975 0.17741,0.5396 0.0997,0.18912 0.18214,0.22167 0.27773,0.37202 0.0916,0.11032 0.15171,0.30357 0.20769,0.45725 0.10888,0.26819 0.19471,0.69746 0.52148,0.78716 0.12778,-0.28927 0.0899,-0.64304 0.0945,-0.96136 0.0309,-0.0823 0.0452,-0.32126 0.11906,-0.36761 0.19234,-0.0572 0.27019,0.29329 0.28275,0.41102 0.11227,0.30753 0.19411,0.69741 0.38069,0.95791 0.19514,0.34014 0.34863,0.28644 0.6039,0.81915 l 0.0578,-0.20342 c 0.10828,0.26802 -0.0279,0.47896 0.26856,0.6505 -0.0171,-0.15724 -0.0492,-0.82888 0.016,-0.95413 0.031,-0.0823 0.1489,-0.0926 0.22794,-0.0994 l 0.18318,1.33293 c 0.0165,0.15724 0.0767,0.35048 0.16825,0.46143 0.22203,0.21828 0.48026,0.0362 0.57983,0.22569 l 0.15511,0.70023 c 0.13339,0.50422 0.31953,1.12267 0.52664,1.57997 0.15629,0.34342 0.36414,0.80129 0.62975,1.05513 0.0916,0.11095 0.22617,0.2579 0.37892,0.20404 0.15348,-0.0531 0.0928,-0.24638 0.11906,-0.36744 0.0229,-0.16063 0.0968,-0.20698 0.12365,-0.32867 0.0183,-0.2002 -0.047,-0.43278 0.0538,-0.60025 -0.0526,0.24298 0.0298,0.27498 0.0555,0.511 0.0338,0.31437 0.11109,0.66486 0.22381,0.97182 0.1684,0.46183 0.29367,0.88652 0.57598,1.2981 0.18716,0.26124 0.61823,0.57951 0.87926,0.79446 0.3572,0.36467 0.70923,0.69051 1.14029,1.00883 l 0.51408,0.35105 0.42693,0.27955 c 0.37906,0.20404 0.4191,-0.15724 0.65487,-0.17793 0.12246,0.0288 0.55293,0.34698 0.68352,0.45454 0.66181,0.61551 0.44421,0.43673 0.90097,0.99109 l 1.03039,1.09808 c 0.26561,0.25389 0.59533,0.74081 0.9577,0.78716 l 0.36237,0.0475 c 0.40536,0.0829 0.85873,0.24055 1.28226,0.12281 0.15747,-0.0141 0.26679,-0.10292 0.33711,-0.1886 0.10488,-0.12864 0.16663,-0.29267 0.32411,-0.30697 0.16131,0.0254 0.53638,0.18986 0.70169,0.25485 0.4185,0.2002 1.01103,0.54418 1.45583,0.62309 0.44524,0.0795 0.76478,-0.26684 0.6915,-0.57776 -0.11227,-0.30758 -0.58278,-0.62251 -0.83406,-1.11577 -0.24329,-0.41452 -0.41155,-0.87578 -0.68987,-1.24797 l -0.63877,-0.7762 -0.38245,-0.60081 -0.18658,-0.26107 c -0.048,-0.0749 -0.11671,-0.34652 -0.1294,-0.46482 l -0.43728,-1.11176 c -0.19927,-0.37897 -0.59311,-0.34359 -0.84838,-0.87624 0.18258,0.22168 0.53122,0.50818 0.7791,0.60477 -0.11212,-0.30753 -0.36355,-0.80084 -0.55072,-1.06207 l -0.40004,-0.40062 c 0.21746,0.17877 0.39147,0.32234 0.6754,0.37603 l 0.0836,-0.32528 c 0.12365,-0.32866 0.23695,-0.37834 0.23415,-0.775 -0.0326,-0.67164 -0.65383,-1.64803 -0.74247,-2.47334 -0.0384,-0.35388 0.0412,-0.71792 0.0818,-1.07858 l 0.0109,-0.6362 c -0.0127,-0.1179 0.0572,-0.20421 0.0801,-0.36421 l -0.007,-0.43606 c 0.0532,-0.24293 0.0841,-0.32528 0.0589,-0.56142 l -0.19012,-0.65733 -0.0114,-0.47556 -0.0681,-0.62868 c -0.051,-0.47161 0.20311,-0.69283 0.24788,-1.01415 0.0229,-0.16108 -0.18096,-0.57956 -0.26857,-0.65095 -0.12645,-0.068 -0.39664,-0.006 -0.30047,-0.21093 0.0968,-0.20698 0.45337,0.15769 0.54496,0.26858 0.11448,-0.40694 0.0275,-0.47895 -0.0498,-0.82915 l -0.1495,-1.01856 c -0.0687,-0.27169 -0.24271,-0.41463 -0.25585,-0.53265 0.0269,-0.12157 0.14476,-0.13214 0.28451,-0.30328 0.14078,-0.17143 0.1981,-0.37496 0.21642,-0.57499 l 0.007,-0.67547 c 0.0442,-0.32138 0.31598,-0.74268 0.66181,-0.85307 0.34922,-0.0708 0.70583,0.29385 0.90215,0.27644 0.19692,-0.0181 0.29309,-0.22466 0.35942,-0.34986 l 0.45337,-1.31065 0.079,-0.007 c 0.19515,0.34014 0.40019,0.4009 0.66521,0.65507 l 0.22661,0.25757 c 0.0435,0.0356 0.11803,-0.0107 0.19233,-0.057 0.13975,-0.1712 0.30802,-0.82129 0.20845,-1.01086 -0.0561,-0.15368 -0.23016,-0.29696 -0.29087,-0.48987 -0.0126,-0.11801 0.0533,-0.24298 0.11906,-0.36778 0.0928,-0.2466 0.14153,-0.5288 0.32057,-0.70362 0.35498,-0.38897 1.06244,-0.45256 1.4935,-0.13378 0.21819,0.17894 0.19071,0.30035 0.2823,0.4113 0.13503,0.14661 0.33134,0.1292 0.39606,0.3615 0.009,0.0786 -0.009,0.27865 -0.036,0.40005 0.0257,0.23592 0.0727,0.31098 -0.0195,0.55729 -0.13163,0.24994 -0.35026,0.42826 -0.43904,0.71397 -0.12306,0.32867 0.0778,0.35049 0.0286,0.63252 -0.0882,0.28588 -0.30284,0.5036 -0.39103,0.78937 -0.10134,0.16781 -0.0841,0.32493 -0.26723,0.46053 -0.14891,0.0925 -0.38926,0.0745 -0.54614,0.0884 -0.23179,0.0604 -0.41556,0.19607 -0.60331,0.29227 0.008,0.0787 0.0165,0.15707 0.0641,0.2323 0.0652,0.23235 0.26162,0.21461 0.45337,0.15769 0.31022,-0.0672 0.72119,-0.30267 1.02639,-0.052 0.26502,0.25429 0.34567,1.00115 0.57184,1.2586 0.21746,0.17889 0.37493,0.16487 0.61927,0.22241 0.16545,0.0646 0.29205,0.13259 0.42249,0.23998 0.30461,0.25033 0.20844,0.45759 0.34686,0.64349 0.13059,0.10711 0.24448,0.0579 0.37907,0.20426 l 0.57745,0.94028 0.39798,-0.35314 c 0.13501,0.14673 0.29249,0.13243 0.31022,-0.0676 -0.0126,-0.11773 -0.0767,-0.34975 -0.12941,-0.46465 0.26561,0.25428 0.28688,0.45092 0.2857,0.80824 0.009,0.0783 -0.0223,0.16063 0.0257,0.23614 0.0167,0.15651 0.20785,0.45725 0.33829,0.56464 0.17003,0.10343 0.28334,0.0537 0.43225,-0.039 0.13619,-0.21031 0.21583,-0.57498 0.42589,-0.83164 0.17579,-0.21433 0.52487,-0.28515 0.84041,-0.67101 -0.0824,-0.0322 -0.33091,-0.12864 -0.30462,-0.25033 0.0618,-0.16402 0.29768,-0.18528 0.44643,-0.27808 0.21878,-0.17832 0.38586,-0.47127 0.43461,-0.75319 l -0.4804,-0.0367 -0.28334,-0.0543 -0.39324,0.0356 -0.3869,-0.28311 -0.55869,-0.0294 c 0.0962,-0.20697 0.1625,-0.33217 0.39841,-0.35325 0.11788,-0.0107 0.28334,0.0543 0.35779,0.008 0.15275,-0.0537 0.13561,-0.21093 0.24552,-0.30001 0.21006,-0.257 0.5197,-0.32437 0.56505,-0.64597 0.32278,0.0503 0.39325,-0.035 0.55412,-0.0102 0.33135,0.12898 0.43446,0.71515 0.58617,1.01917 -0.40993,-0.12202 -0.33268,0.22818 -0.34242,0.50682 0.1489,-0.0926 0.32411,-0.30668 0.47685,-0.3602 l 0.51527,-0.007 c 0.11788,-0.0107 0.15274,-0.0531 0.26679,-0.10327 0.27063,-0.0638 0.44923,0.11858 0.59237,0.34387 0.14892,-0.0926 0.14035,-0.17142 0.0446,-0.3216 l 0.19647,-0.0175 -0.11227,-0.30713 c -0.19632,0.0175 -0.2405,-0.0181 -0.29767,0.18516 -0.16943,-0.10372 -0.16943,-0.10372 -0.37035,-0.12553 l 0.14477,-0.13175 -0.009,-0.0789 c -0.33533,-0.16832 0.0493,-0.28204 0.10652,-0.4858 0.0269,-0.12152 -0.0205,-0.19629 -0.0687,-0.27152 l 0.49399,-0.20314 c 0.21007,-0.25666 0.38867,-0.0743 0.47686,-0.3602 0.40536,0.0829 0.27196,-0.42114 0.5782,-0.52807 0.0739,-0.0463 0.19574,-0.0175 0.27477,-0.0249 0.1133,-0.0497 0.22661,-0.0994 0.3411,-0.14944 0.15688,-0.0141 0.23591,-0.0209 0.38807,-0.0747 0.14891,-0.0925 0.2851,-0.30311 0.39043,-0.43142 0.0699,-0.0862 0.21406,-0.21788 0.24508,-0.30018 0.0263,-0.12146 -0.0253,-0.23546 -0.0458,-0.43238 0.16131,0.0249 0.27935,0.0147 0.38349,-0.11372 0.10991,-0.0892 0.0928,-0.24648 -0.0733,-0.31097 -0.039,0.006 -0.15688,0.0141 -0.19573,0.0175 l 0.54259,-0.48529 0.10651,-0.4859 -0.15349,0.0531 0.0539,-0.24299 -0.43283,0.039 c 0.0699,-0.0857 0.28053,-0.34268 0.3504,-0.42837 0.18436,-0.13559 0.38468,-0.11377 0.47745,-0.36054 -0.38822,0.0747 -0.86552,0.43487 -1.1106,0.7346 l -0.38246,0.51038 0.023,-0.16063 c -0.38467,0.114 -0.35956,0.34991 -0.50847,0.44255 l -0.0743,0.0464 c 0.11788,-0.0102 -0.67201,0.0209 -0.54954,0.0497 -0.20091,-0.022 -0.4185,-0.20065 -0.59253,-0.34416 -0.13103,-0.10727 -0.22158,-0.21805 -0.37035,-0.12525 l -0.73611,-0.56893 c 0.0697,-0.0857 0.10533,-0.12864 0.0183,-0.20031 -0.087,-0.0716 -0.2919,-0.13265 -0.46194,-0.23648 -0.30519,-0.25033 -0.29087,-0.48987 -0.32928,-0.84363 -0.0331,-0.31436 -0.0733,-0.31097 -0.18081,-0.57911 -0.0521,-0.11462 -0.0607,-0.19307 -0.15231,-0.30402 -0.091,-0.11095 -0.30446,-0.25033 -0.43505,-0.35789 -0.17401,-0.14294 -0.39147,-0.32199 -0.59237,-0.34381 -0.28334,-0.0537 -0.50212,0.12463 -0.74705,0.067 -0.2049,-0.0609 -0.47006,-0.31494 -0.71839,-0.41187 -0.16146,-0.0254 -0.35778,-0.007 -0.51527,0.006 -0.009,-0.0786 -0.0257,-0.23575 -0.10813,-0.26802 -0.12601,-0.068 -0.3538,0.0317 -0.51069,0.0458 -0.15733,0.0141 -0.20947,-0.10032 -0.33134,-0.12921 -0.12202,-0.0288 -0.67674,-0.0186 -0.74705,0.0669 -0.0745,0.0464 -0.0219,0.1608 -0.0137,0.23942 l 0,0 z m 28.08405,-4.10378 c 0.32173,0.40774 0.89639,0.95164 1.38063,1.02743 -0.14299,-0.22552 -0.26561,-0.254 -0.43963,-0.39723 -0.25645,-0.17555 -0.69253,-0.53344 -0.941,-0.6302 l 0,0 z m -3.14626,-1.58336 -0.0996,-0.18957 c 0.16605,0.0643 0.33209,0.12898 0.42723,0.27926 0.0514,0.11434 0.0606,0.19296 0.0733,0.31092 0.0251,0.23592 0.43844,0.75455 0.67776,0.77252 0.0833,0.0322 0.0789,-0.007 0.15777,-0.0141 l -0.20268,-0.77563 c -0.0916,-0.11089 -0.20475,-0.0609 -0.33976,-0.20754 l -0.81752,-0.95881 c -0.0481,-0.0752 -0.23015,-0.29696 -0.20386,-0.4182 0.0697,-0.0857 0.26679,-0.10337 0.34568,-0.11016 l -0.74867,-0.68712 c -0.0872,-0.0717 -0.22218,-0.21833 -0.37552,-0.16492 -0.15245,0.0531 -0.20977,0.25694 -0.27625,0.38174 -0.0653,0.12525 -0.17047,0.2536 -0.15806,0.37156 0.0561,0.15391 0.23488,0.33619 0.32558,0.44697 l 0.69727,0.57249 c 0.17845,0.18262 0.26886,0.29357 0.51733,0.3905 l 0,0 z m 10.18831,-0.0795 c -0.10311,-0.58623 -0.48099,-1.14754 -0.92387,-1.58399 l -0.69726,-0.57266 c -0.26916,-0.29323 -0.55988,-0.7831 -0.95608,-1.14466 -0.4349,-0.35789 -0.76226,-0.44758 -1.1493,-0.73047 l -0.65827,-0.57617 -1.17471,-0.96639 c -0.30461,-0.25033 -0.66624,-0.65479 -0.89639,-0.95141 -0.23489,-0.33635 -0.16841,-0.46126 -0.30343,-0.60793 -0.0916,-0.11089 -0.4225,-0.2401 -0.58381,-0.26519 l 0.0617,-0.16431 -0.2919,-0.13265 c 0.1625,-0.33206 -0.0653,-0.2323 -0.29545,-0.52892 -0.0916,-0.11095 -0.10754,-0.26847 -0.25172,-0.49359 -0.22572,-0.25757 -0.52679,-0.46879 -0.82224,-0.64049 l -1.43323,-0.78462 c -0.46268,-0.23631 -1.09494,-0.57679 -1.61346,-0.60952 -0.39738,-0.006 -0.65146,0.21715 -1.04087,0.29148 -0.34892,0.0711 -1.1035,0.0595 -1.34518,0.39841 -0.24493,0.29978 0.36872,0.84023 0.5909,1.05857 l 0.62163,0.61879 c 0.17874,0.18262 0.23015,0.29696 0.41215,0.51863 0.1752,0.14322 0.51408,0.35111 0.65383,0.53678 0.13857,0.18606 -0.0928,0.24665 0.0937,0.50761 0.14329,0.22529 0.49252,0.51156 0.59681,0.74053 0.0561,0.15368 0.0813,0.38954 0.21184,0.4971 0.12586,0.068 0.27477,-0.0249 0.39265,-0.0356 0.19234,-0.0568 0.75695,-0.34546 0.92624,-0.24146 0.16958,0.10366 0.74867,0.68678 0.88399,0.83368 0.0869,0.0714 0.26442,0.25372 0.23813,0.37558 0.0216,0.19635 -0.5977,-0.026 -0.44997,0.23857 0.0479,0.0752 0.42692,0.27921 0.55751,0.38677 l 0.48307,0.43289 0.56106,0.42588 c 0.13058,0.1075 0.27358,0.33263 0.40063,0.40079 0.24847,0.0968 0.37551,-0.19234 0.58972,-0.0531 0.41776,0.20065 0.71765,0.76941 1.15285,1.12713 0.29544,0.17182 0.3696,0.12553 0.61808,0.22247 0.20947,0.10026 0.34479,0.24693 0.55751,0.3866 0.33563,0.16831 0.36311,0.0469 0.75458,0.36908 0.52206,0.42927 0.96642,0.86589 1.41403,1.34174 0.17844,0.18233 0.61807,0.57956 0.82312,0.64049 0.039,-0.006 0.0777,-0.007 0.11788,-0.0102 l 0.44998,-0.23868 c 0,0 0.0402,-0.006 0.0355,-0.043 0.0263,-0.12141 0.009,-0.27865 0.0355,-0.40016 0.0275,-0.12141 0.10193,-0.16776 0.12379,-0.32867 0.0263,-0.12112 0.001,-0.35727 0.11434,-0.40701 0.11463,-0.0503 0.33208,0.12893 0.41451,0.16126 l 0,0 z m -9.59062,-10.21399 c -0.0171,-0.15724 -0.0606,-0.1929 -0.1167,-0.34664 -0.23488,-0.33618 -0.49576,-0.55079 -0.86685,-0.67661 -0.12113,-0.0283 -0.48749,-0.1149 -0.55396,0.0102 -0.10075,0.16769 0.32617,0.44724 0.45203,0.51524 0.1306,0.10722 0.29664,0.17182 0.42722,0.27938 0.25291,0.13599 0.37434,0.16476 0.65826,0.21862 l 0,0 z m -15.39311,-3.30391 c 0.51985,0.0328 0.71558,0.0153 1.21238,0.20857 0.45337,0.15786 0.71898,0.41186 1.23882,0.44476 l -0.58277,-0.62252 0.33209,-0.22806 c -0.17402,-0.14322 -0.25188,-0.13627 -0.4225,-0.23999 -0.087,-0.0715 -0.095,-0.15029 -0.182,-0.22184 -0.079,0.007 -0.27595,0.0249 -0.3538,0.0317 -0.23237,0.0603 -0.42368,0.11756 -0.69032,0.22071 -0.23252,0.0603 -0.54156,0.12768 -0.5519,0.40667 l 0,0 z m 2.38251,-1.08655 c -0.0573,0.20342 -0.24965,0.26034 -0.43387,0.39576 0.0434,0.0356 0.048,0.0752 0.0916,0.11095 0.12705,0.068 0.77275,0.16888 0.93422,0.19426 0.39724,0.006 0.41097,-0.23518 0.87807,-0.31685 l 0.585,-0.0921 c 0.54954,-0.0492 1.30057,-0.0769 1.79057,-0.31923 -0.18657,-0.2609 -0.30446,-0.25073 -0.59193,-0.34382 -0.44982,-0.11863 -0.92964,-0.15492 -1.38862,0.006 -0.42367,0.11745 -0.40654,0.27469 -0.95711,0.32408 l -0.90792,0.0418 0,0 z m -8.34618,67.26627 c -9.17728,-1.95657 1.86681,0.38824 0,0 l 0,0 z"
       style="display:inline;fill:#000000;fill-opacity:1"
       id="path2047-2-37-6"
       inkscape:export-xdpi="90"
       inkscape:export-ydpi="90" />
    <path
       style="display:inline;fill:#e6e6e6;fill-rule:evenodd;stroke:#000000;stroke-width:0.99999994px;stroke-linecap:round;stroke-linejoin:round;stroke-opacity:1"
       d="m 394.74132,243.04146 -9.43197,-3.21292 18.64202,21.71495 -0.7958,-24.53732 z"
       id="path4937"
       inkscape:connector-curvature="0"
       sodipodi:nodetypes="ccccc"
       inkscape:export-xdpi="90"
       inkscape:export-ydpi="90" />
    <path
       style="display:inline;fill:#e6e6e6;fill-rule:evenodd;stroke:#000000;stroke-width:0.99999994px;stroke-linecap:round;stroke-linejoin:round;stroke-opacity:1"
       d="m 403.10173,237.02076 5.51013,-5.27993 9.76487,5.65032 -9.43197,5.98268 -1.33157,-7.97691 z"
       id="path4939"
       inkscape:connector-curvature="0"
       sodipodi:nodetypes="cccccc"
       inkscape:export-xdpi="90"
       inkscape:export-ydpi="90" />
    <path
       style="display:inline;fill:#e6e6e6;fill-rule:evenodd;stroke:#000000;stroke-width:0.99999994px;stroke-linecap:round;stroke-linejoin:round;stroke-opacity:1"
       d="m 413.38333,258.88452 24.63408,-5.09637 -5.32628,16.17543 -6.5469,-6.53665 z"
       id="path4941"
       inkscape:connector-curvature="0"
       inkscape:export-xdpi="90"
       inkscape:export-ydpi="90" />
    <path
       style="display:inline;fill:#e6e6e6;fill-rule:evenodd;stroke:#000000;stroke-width:0.99999994px;stroke-linecap:round;stroke-linejoin:round;stroke-opacity:1"
       d="m 417.15612,256.33633 8.21136,-11.7438 -6.32497,-10.85747 21.74901,2.21581 -10.8745,18.39123 z"
       id="path4943"
       inkscape:connector-curvature="0"
       inkscape:export-xdpi="90"
       inkscape:export-ydpi="90" />
    <path
       style="display:inline;fill:#e6e6e6;fill-rule:evenodd;stroke:#000000;stroke-width:0.99999994px;stroke-linecap:round;stroke-linejoin:round;stroke-opacity:1"
       d="m 436.13103,218.88913 -7.43462,-1.55107 11.5403,10.41431 2.66314,-1.44028 z"
       id="path4945"
       inkscape:connector-curvature="0"
       inkscape:export-xdpi="90"
       inkscape:export-ydpi="90" />
    <path
       style="opacity:1;fill:none;fill-opacity:1;stroke:#000000;stroke-width:2;stroke-linecap:round;stroke-linejoin:round;stroke-miterlimit:4;stroke-dasharray:none;stroke-dashoffset:0;stroke-opacity:1"
       id="path4922"
       sodipodi:type="arc"
       sodipodi:cx="297.14285"
       sodipodi:cy="245.93362"
       sodipodi:rx="39.285713"
       sodipodi:ry="39.285713"
       sodipodi:start="1.1003236"
       sodipodi:end="1.08497"
       sodipodi:open="true"
       d="m 314.95137,280.95111 a 39.285713,39.285713 0 0 1 -52.75738,-17.07469 39.285713,39.285713 0 0 1 16.87205,-52.82253 39.285713,39.285713 0 0 1 52.88691,16.66917 39.285713,39.285713 0 0 1 -16.46606,52.9505"
       inkscape:export-xdpi="90"
       inkscape:export-ydpi="90" />
    <path
       style="opacity:1;fill:none;fill-opacity:1;stroke:#000000;stroke-width:2;stroke-linecap:round;stroke-linejoin:round;stroke-miterlimit:4;stroke-dasharray:none;stroke-dashoffset:0;stroke-opacity:1"
       id="path4922-3"
       sodipodi:type="arc"
       sodipodi:cx="417.14285"
       sodipodi:cy="245.21935"
       sodipodi:rx="39.285713"
       sodipodi:ry="39.285713"
       sodipodi:start="1.1003236"
       sodipodi:end="1.08497"
       sodipodi:open="true"
       d="m 434.95137,280.23683 a 39.285713,39.285713 0 0 1 -52.75738,-17.07469 39.285713,39.285713 0 0 1 16.87205,-52.82253 39.285713,39.285713 0 0 1 52.88691,16.66917 39.285713,39.285713 0 0 1 -16.46606,52.95051"
       inkscape:export-xdpi="90"
       inkscape:export-ydpi="90" />
    <path
       style="fill:none;fill-rule:evenodd;stroke:#000000;stroke-width:1px;stroke-linecap:butt;stroke-linejoin:miter;stroke-opacity:1;marker-end:url(#Arrow1Mend)"
       d="m 344.46202,246.26047 26.26396,0"
       id="path4976"
       inkscape:connector-curvature="0"
       inkscape:export-xdpi="90"
       inkscape:export-ydpi="90" />
  </g>
</svg>
